<svg xmlns="http://www.w3.org/2000/svg" viewBox="0 0 750 500"><g id="freepik--background-complete--inject-59"><path d="M687.26,458l-40.18-12,0-99.23h.11a172,172,0,0,1,2-17.77c2.06-12.4,24.88-38.41,26.94-70.43,2.39-37.35.1-99.64.1-99.64s-5.15-3.65-33.12-3.65S609.94,159,609.94,159s-2.27,62.29.13,99.64c2,32,24.88,58,26.94,70.43,1.49,9.14,2,16.75,2.08,17.67,0,0,0,0,0,0l0,99.29-40.17,12Zm-74-199.38c-.79-12.4-1-29-1-45.12,0-6.27.05-9.76.05-9.76h0v0c.18-23.65.81-43.76.81-43.76s11.19,3,29.9,3S673,160,673,160s.64,20.13.83,43.79c0,0,0,.14,0,.42.09,2.92.57,21.1-.47,45-.07,1.64-.15,3.32-.23,5q-.11,2.28-.24,4.38c-1.34,23-15.07,45.55-24.09,53.74-.18.17-.36.33-.54.47-.33.3-.68.58-1,.83l-.2.15a7.42,7.42,0,0,1-4,1.8,4.64,4.64,0,0,1-1.91-.5,11.41,11.41,0,0,1-2.08-1.27C630.06,307.31,614.25,283.29,613.3,258.65Z" style="fill:#ebebeb;opacity:0.8"></path><path d="M647,313.84a7.42,7.42,0,0,1-4,1.8,4.64,4.64,0,0,1-1.91-.5,11.41,11.41,0,0,1-2.08-1.27V289.74H647Z" style="fill:#ebebeb"></path><path d="M673.34,249.25c-.07,1.64-.15,3.32-.23,5q-.11,2.28-.24,4.38c-1.34,23-15.07,45.55-24.09,53.74-.18.17-.36.33-.54.47-.33.3-.68.58-1,.83l-.2.15a7.42,7.42,0,0,1-4,1.8,4.64,4.64,0,0,1-1.91-.5,11.41,11.41,0,0,1-2.08-1.27c-9-6.56-24.84-30.58-25.79-55.22-.79-12.4-1-29-1-45.12,0-6.27.05-9.76.05-9.76h0v0c.18-23.65.81-43.76.81-43.76s11.19,3,29.9,3S673,160,673,160s.64,20.13.83,43.79c0,0,0,.14,0,.42C673.9,207.15,674.38,225.33,673.34,249.25Z" style="fill:#dbdbdb;opacity:0.7000000000000001"></path><g style="opacity:0.6000000000000001"><path d="M673.34,249.25c-.07,1.64-.15,3.32-.23,5q-.12,2.17-.24,4.38c-1.34,23-15.07,45.55-24.09,53.74-.18.17-.36.33-.54.47-.33.3-.68.58-1,.83l-.2.15a7.42,7.42,0,0,1-4,1.8,4.64,4.64,0,0,1-1.91-.5,11.41,11.41,0,0,1-2.08-1.27c-9-6.56-24.84-30.58-25.79-55.22-.78-19.69-1-35.59-1-45.12,0-6.27.05-9.76.05-9.76h0v0c.34-.13,6.26-2.41,30.71-2.41,25.23,0,30.72,2.47,30.72,2.47s0,.14,0,.42C673.9,207.15,674.38,225.33,673.34,249.25Z" style="fill:#dbdbdb"></path><path d="M673.8,203.81c-1,.24-12.17,3-30.72,3-18.34,0-29.68-2.79-30.71-3v0c.34-.13,6.26-2.41,30.71-2.41C668.31,201.34,673.8,203.81,673.8,203.81Z" style="opacity:0.2"></path><path d="M623.65,216.4a1.53,1.53,0,1,1-1.53-1.53A1.52,1.52,0,0,1,623.65,216.4Z" style="opacity:0.2"></path><path d="M627.56,281.19a1.53,1.53,0,1,1-1.52-1.53A1.52,1.52,0,0,1,627.56,281.19Z" style="opacity:0.2"></path><path d="M656.66,251.28a1,1,0,1,1-1-1A1,1,0,0,1,656.66,251.28Z" style="opacity:0.2"></path><path d="M658.7,291.43a1,1,0,1,1-1-1A1,1,0,0,1,658.7,291.43Z" style="opacity:0.2"></path><path d="M634.8,228.7a1,1,0,1,1-1-1A1,1,0,0,1,634.8,228.7Z" style="opacity:0.2"></path><path d="M633.8,285.37a1,1,0,1,1-1-1A1,1,0,0,1,633.8,285.37Z" style="opacity:0.2"></path><path d="M660.75,260.14a1.53,1.53,0,1,1-1.53-1.53A1.53,1.53,0,0,1,660.75,260.14Z" style="opacity:0.2"></path><path d="M619.26,223.18a.66.66,0,0,1-.66.65.65.65,0,1,1,0-1.3A.66.66,0,0,1,619.26,223.18Z" style="opacity:0.2"></path><circle cx="667.7" cy="221.22" r="0.65" style="opacity:0.2"></circle><circle cx="632.14" cy="265.21" r="0.65" style="opacity:0.2"></circle><circle cx="623.65" cy="237.81" r="0.65" style="opacity:0.2"></circle></g><path d="M676.21,159.32c-20.27,5.56-46,5.57-66.27,0,2.72.61,5.46,1.08,8.22,1.45a175.68,175.68,0,0,0,58.05-1.45Z" style="fill:#fff"></path><path d="M616.26,160.63v83.66c0,26.35,13.85,65,26.82,65,15.66,0,24.24-35.43,25.52-42.31s0-106.11,0-106.11-2,.38-8.67,1.24V264.68c0,7.9-7.2,36.7-15.87,36.7s-11.66-47.66-11.66-57.09V162.73C628.07,162.73,616.26,160.63,616.26,160.63Z" style="fill:#fff;opacity:0.30000000000000004"></path><path d="M596,458l-40.18-12,0-99.23h.1a172,172,0,0,1,2-17.77c2.06-12.4,24.88-38.41,26.94-70.43,2.39-37.35.1-99.64.1-99.64s-5.15-3.65-33.12-3.65S518.71,159,518.71,159s-2.28,62.29.12,99.64c2,32,24.88,58,26.94,70.43,1.5,9.14,2,16.75,2.08,17.67,0,0,0,0,0,0l0,99.29-40.17,12Zm-74-199.38c-.79-12.4-1-29-1-45.12,0-6.27,0-9.76,0-9.76h0v0c.19-23.65.82-43.76.82-43.76s11.19,3,29.89,3c18.87,0,29.89-2.94,29.89-2.94s.65,20.13.83,43.79c0,0,0,.14,0,.42.09,2.92.58,21.1-.47,45-.07,1.64-.15,3.32-.23,5q-.11,2.28-.24,4.38c-1.33,23-15.06,45.55-24.09,53.74a5.86,5.86,0,0,1-.54.47c-.33.3-.68.58-1,.83l-.19.15a7.44,7.44,0,0,1-4,1.8,4.72,4.72,0,0,1-1.91-.5,11.76,11.76,0,0,1-2.08-1.27C538.83,307.31,523,283.29,522.06,258.65Z" style="fill:#ebebeb;opacity:0.8"></path><path d="M555.81,313.84a7.44,7.44,0,0,1-4,1.8,4.72,4.72,0,0,1-1.91-.5,11.76,11.76,0,0,1-2.08-1.27V289.74h8Z" style="fill:#ebebeb"></path><path d="M582.1,249.25c-.07,1.64-.15,3.32-.23,5q-.11,2.28-.24,4.38c-1.33,23-15.06,45.55-24.09,53.74a5.86,5.86,0,0,1-.54.47c-.33.3-.68.58-1,.83l-.19.15a7.44,7.44,0,0,1-4,1.8,4.72,4.72,0,0,1-1.91-.5,11.76,11.76,0,0,1-2.08-1.27c-9-6.56-24.83-30.58-25.79-55.22-.79-12.4-1-29-1-45.12,0-6.27,0-9.76,0-9.76h0v0c.19-23.65.82-43.76.82-43.76s11.19,3,29.89,3c18.87,0,29.89-2.94,29.89-2.94s.65,20.13.83,43.79c0,0,0,.14,0,.42C582.66,207.15,583.15,225.33,582.1,249.25Z" style="fill:#dbdbdb;opacity:0.7000000000000001"></path><g style="opacity:0.6000000000000001"><path d="M582.1,249.25c-.07,1.64-.15,3.32-.23,5q-.12,2.17-.24,4.38c-1.33,23-15.06,45.55-24.09,53.74a5.86,5.86,0,0,1-.54.47c-.33.3-.68.58-1,.83l-.19.15a7.44,7.44,0,0,1-4,1.8,4.72,4.72,0,0,1-1.91-.5,11.76,11.76,0,0,1-2.08-1.27c-9-6.56-24.83-30.58-25.79-55.22-.78-19.69-1-35.59-1-45.12,0-6.27,0-9.76,0-9.76h0v0c.35-.13,6.27-2.41,30.71-2.41,25.24,0,30.72,2.47,30.72,2.47s0,.14,0,.42C582.66,207.15,583.15,225.33,582.1,249.25Z" style="fill:#dbdbdb"></path><path d="M582.56,203.81c-1,.24-12.16,3-30.72,3-18.34,0-29.67-2.79-30.71-3v0c.35-.13,6.27-2.41,30.71-2.41C577.08,201.34,582.56,203.81,582.56,203.81Z" style="opacity:0.2"></path><path d="M532.41,216.4a1.53,1.53,0,1,1-1.52-1.53A1.52,1.52,0,0,1,532.41,216.4Z" style="opacity:0.2"></path><path d="M536.33,281.19a1.53,1.53,0,1,1-1.53-1.53A1.52,1.52,0,0,1,536.33,281.19Z" style="opacity:0.2"></path><path d="M565.42,251.28a1,1,0,1,1-1-1A1,1,0,0,1,565.42,251.28Z" style="opacity:0.2"></path><path d="M567.46,291.43a1,1,0,1,1-1-1A1,1,0,0,1,567.46,291.43Z" style="opacity:0.2"></path><path d="M543.56,228.7a1,1,0,1,1-1-1A1,1,0,0,1,543.56,228.7Z" style="opacity:0.2"></path><circle cx="541.56" cy="285.37" r="1" style="opacity:0.2"></circle><path d="M569.51,260.14a1.53,1.53,0,1,1-1.52-1.53A1.52,1.52,0,0,1,569.51,260.14Z" style="opacity:0.2"></path><circle cx="527.37" cy="223.18" r="0.65" style="opacity:0.2"></circle><path d="M577.12,221.22a.65.65,0,1,1-1.3,0,.65.65,0,1,1,1.3,0Z" style="opacity:0.2"></path><circle cx="540.91" cy="265.21" r="0.65" style="opacity:0.2"></circle><circle cx="532.41" cy="237.81" r="0.65" style="opacity:0.2"></circle></g><path d="M585,159.32c-20.26,5.56-46,5.57-66.26,0,2.72.61,5.46,1.08,8.21,1.45A175.66,175.66,0,0,0,585,159.32Z" style="fill:#fff"></path><path d="M525,160.63v83.66c0,26.35,13.85,65,26.82,65,15.67,0,24.25-35.43,25.52-42.31s0-106.11,0-106.11-2,.38-8.66,1.24V264.68c0,7.9-7.21,36.7-15.87,36.7s-11.66-47.66-11.66-57.09V162.73C536.83,162.73,525,160.63,525,160.63Z" style="fill:#fff;opacity:0.30000000000000004"></path><path d="M375.18,36.54a360.73,360.73,0,0,1,0,38.35,360.73,360.73,0,0,1,0-38.35Z" style="fill:#dbdbdb"></path><path d="M328.28,55.81A357.7,357.7,0,0,1,355.4,82.93a361.42,361.42,0,0,1-27.12-27.12Z" style="fill:#dbdbdb"></path><path d="M308.75,102.6a360.91,360.91,0,0,1,38.36,0,355.69,355.69,0,0,1-38.36,0Z" style="fill:#dbdbdb"></path><path d="M328,149.5a357.7,357.7,0,0,1,27.12-27.12A361.42,361.42,0,0,1,328,149.5Z" style="fill:#dbdbdb"></path><path d="M374.82,169a360.73,360.73,0,0,1,0-38.35,360.73,360.73,0,0,1,0,38.35Z" style="fill:#dbdbdb"></path><path d="M421.72,149.76a359.55,359.55,0,0,1-27.12-27.12,361.42,361.42,0,0,1,27.12,27.12Z" style="fill:#dbdbdb"></path><path d="M441.25,103a360.91,360.91,0,0,1-38.36,0,355.69,355.69,0,0,1,38.36,0Z" style="fill:#dbdbdb"></path><path d="M422,56.07a359.55,359.55,0,0,1-27.12,27.12A361.42,361.42,0,0,1,422,56.07Z" style="fill:#dbdbdb"></path><path d="M184,458.07H67.13S64.61,333.8,69.25,283.7c2.9-31.41,39.17-108.06,39.17-141.47V82.38h34.31v59.85c0,33.41,36.26,110.06,39.16,141.47C186.54,333.8,184,458.07,184,458.07Z" style="fill:#c7c7c7"></path><rect x="79.04" y="338.89" width="93.07" height="87.18" style="fill:#ebebeb"></rect><path d="M159.94,210c-9,7.43-21.7,16.39-34.37,20.53-12.66-4.14-25.32-13.1-34.36-20.53,2.51-7.28,5-14.54,7.18-21.58.15-.47.31-1,.46-1.44s.29-1,.45-1.43c5.28-17,9.12-32.43,9.12-43.31V82.38h34.31v59.85c0,10.88,3.84,26.32,9.12,43.31.15.47.29,1,.45,1.43s.3,1,.46,1.44C155,195.45,157.43,202.71,159.94,210Z" style="fill:#ebebeb"></path><polygon points="108.42 82.38 108.42 96.94 142.73 94.15 142.73 82.38 108.42 82.38" style="fill:#c7c7c7"></polygon><path d="M160.51,211.65c-9.44,7.6-22.19,16.39-34.94,20.56-12.74-4.17-25.49-13-34.93-20.56.16-.48.33-1,.48-1.43l.09-.23c2.51-7.28,5-14.54,7.18-21.58.15-.47.31-1,.46-1.44,7.91,6.14,17.32,12.24,26.72,15.5,9.4-3.26,18.82-9.36,26.73-15.5.15.48.3,1,.46,1.44,2.23,7,4.67,14.3,7.18,21.58a2.09,2.09,0,0,1,.08.23C160.18,210.7,160.35,211.17,160.51,211.65Z" style="fill:#a6a6a6"></path><path d="M160.51,211.65c-.16-.48-.33-1-.49-1.43-9.28,7.52-21.91,16.3-34.45,20.51-12.53-4.21-25.16-13-34.45-20.51-.15.48-.32.95-.48,1.43s-.32.95-.49,1.42c9.45,7.59,22.15,16.26,35,20.46l.43.14.44-.14c12.84-4.2,25.53-12.87,35-20.46C160.83,212.6,160.68,212.12,160.51,211.65ZM125.57,204l.46-.16c9.43-3.27,18.79-9.27,26.73-15.38-.16-.47-.31-1-.46-1.44s-.3-1-.45-1.43c-7.77,6.06-17.06,12.16-26.28,15.45-9.21-3.29-18.5-9.39-26.27-15.45-.16.47-.3,1-.45,1.43s-.31,1-.46,1.44c7.94,6.11,17.3,12.11,26.72,15.38Z" style="fill:#ebebeb"></path><path d="M115.4,82.38v59.85c0,33.41-20.82,110.06-23.72,141.47C87,333.8,89.56,451.1,89.56,451.1H73.7s-2.53-117.3,2.12-167.4c2.9-31.41,36.37-108.06,36.37-141.47V82.38Z" style="fill:#fff;opacity:0.3"></path><path d="M137.71,82.38v59.85c0,33.41,26.9,110.06,29.8,141.47,4.65,50.1,2.12,167.4,2.12,167.4h8.09s2.53-117.3-2.12-167.4c-2.9-31.41-36.37-108.06-36.37-141.47V82.38Z" style="fill:#fff;opacity:0.3"></path><rect x="104.13" y="40.97" width="42.88" height="49.78" style="fill:#c7c7c7"></rect><rect x="107.35" y="44.89" width="1.08" height="41.95" style="fill:#a6a6a6"></rect><rect x="110.88" y="44.89" width="1.08" height="41.95" style="fill:#a6a6a6"></rect><rect x="114.42" y="44.89" width="1.08" height="41.95" style="fill:#a6a6a6"></rect><rect x="117.96" y="44.89" width="1.08" height="41.95" style="fill:#a6a6a6"></rect><rect x="121.49" y="44.89" width="1.08" height="41.95" style="fill:#a6a6a6"></rect><rect x="125.03" y="44.89" width="1.08" height="41.95" style="fill:#a6a6a6"></rect><rect x="128.57" y="44.89" width="1.08" height="41.95" style="fill:#a6a6a6"></rect><rect x="132.1" y="44.89" width="1.08" height="41.95" style="fill:#a6a6a6"></rect><rect x="135.64" y="44.89" width="1.08" height="41.95" style="fill:#a6a6a6"></rect><rect x="139.18" y="44.89" width="1.08" height="41.95" style="fill:#a6a6a6"></rect><rect x="142.71" y="44.89" width="1.08" height="41.95" style="fill:#a6a6a6"></rect></g><g id="freepik--character-2--inject-59"><path d="M750,266.09v93.8c-12.49,9.73-23.26,15.43-32.93,15.69-26.05.72-139.8-22.52-163.89-24.25-13.41-1,23.64-97.56,37.48-101.51,3.18-.89,126.34,30.43,133,29.15C729.93,277.73,738.85,272.72,750,266.09Z" style="fill:#ad6359"></path><path d="M517.81,334.19l-42.24-1-26.27-96.5.1,0a172.52,172.52,0,0,1-2.74-17.81c-1.28-12.6,14-43.93,7.58-75.62-7.55-37-26.25-96.94-26.25-96.94s-6-2.18-33.18,5.21-31.26,12.31-31.26,12.31S377.81,125,390,160.67c10.44,30.6,39.54,49.86,44.82,61.38,3.87,8.49,6.4,15.75,6.7,16.63,0,0,0,0,0,0l26.28,96.55-35.9,22.3ZM393.16,159.83c-4.05-11.86-8.67-28-12.89-43.63-1.67-6.09-2.53-9.51-2.53-9.51h0C371.67,83.63,367,63.89,367,63.89s11.66-.06,29.86-5c18.35-5,28.29-10.77,28.29-10.77s5.95,19.41,12.38,42.37l.12.4c.87,2.82,6.14,20.38,11.45,43.92.37,1.61.73,3.27,1.1,4.94.34,1.5.65,2.94.93,4.33,4.79,22.75-2.61,48.28-9.22,58.63a5.68,5.68,0,0,1-.4.6c-.25.38-.51.74-.76,1.07a1,1,0,0,1-.15.2,7.45,7.45,0,0,1-3.38,2.8,4.68,4.68,0,0,1-2,0,13.11,13.11,0,0,1-2.35-.68C422.33,202.72,400.61,183.54,393.16,159.83Z" style="fill:#ebebeb;opacity:0.8"></path><path d="M440.57,204.58a7.45,7.45,0,0,1-3.38,2.8,4.68,4.68,0,0,1-2,0,13.11,13.11,0,0,1-2.35-.68v0l-6.39-23.43,7.74-2.11Z" style="fill:#ebebeb"></path><path d="M449.07,134.81c.37,1.61.73,3.27,1.1,4.94.34,1.5.65,2.94.93,4.33,4.79,22.75-2.61,48.28-9.22,58.63a5.68,5.68,0,0,1-.4.6c-.25.38-.51.74-.76,1.07a1,1,0,0,1-.15.2,7.45,7.45,0,0,1-3.38,2.8,4.68,4.68,0,0,1-2,0,13.11,13.11,0,0,1-2.35-.68c-10.52-4-32.24-23.18-39.69-46.89-4.05-11.86-8.67-28-12.89-43.63-1.67-6.09-2.53-9.51-2.53-9.51h0C371.67,83.63,367,63.89,367,63.89s11.66-.06,29.86-5c18.35-5,28.29-10.77,28.29-10.77s5.95,19.41,12.38,42.37l.12.4C438.49,93.71,443.76,111.27,449.07,134.81Z" style="fill:#dbdbdb;opacity:0.7000000000000001"></path><g style="opacity:0.6000000000000001"><path d="M449.07,134.81c.37,1.61.73,3.27,1.1,4.94.31,1.43.62,2.88.93,4.33,4.79,22.75-2.61,48.28-9.22,58.63a5.68,5.68,0,0,1-.4.6c-.25.38-.51.74-.76,1.07a1,1,0,0,1-.15.2,7.45,7.45,0,0,1-3.38,2.8,4.68,4.68,0,0,1-2,0,13.11,13.11,0,0,1-2.35-.68c-10.52-4-32.24-23.18-39.69-46.89-6-19-9.59-31.54-12.14-40.8-1.66-6.09-2.53-9.51-2.53-9.51h0c2.86-4.48,19.27-2.61,38.42-19.78,17-15.23,21.34,3.59,21.34,3.59a3.83,3.83,0,0,0,.12.4C439.24,96.54,443.76,111.27,449.07,134.81Z" style="fill:#FF0000"></path><path d="M403.2,119c-17.11-.07-23.72-7.34-24.61-9.06a.78.78,0,0,1-.1-.3h0l0,0,.1-.22c3.11-4.3,19.37-2.66,38.31-19.64,15.43-13.84,20.44.45,21.23,3.16l0,.14C438.18,109.15,415.65,119.05,403.2,119Z" style="fill:#fff;opacity:0.4"></path><path d="M442.17,130.78a1.55,1.55,0,0,1-1.09,1.89,1.54,1.54,0,1,1,1.09-1.89Z" style="fill:#fff;opacity:0.4"></path><path d="M408.59,159.74a1.54,1.54,0,1,1-1.89-1.08A1.54,1.54,0,0,1,408.59,159.74Z" style="fill:#fff;opacity:0.4"></path><path d="M432.81,143.76a1,1,0,0,1-.71,1.24,1,1,0,1,1,.71-1.24Z" style="fill:#fff;opacity:0.4"></path><path d="M445.4,182.27a1,1,0,1,1-1.24-.71A1,1,0,0,1,445.4,182.27Z" style="fill:#fff;opacity:0.4"></path><path d="M435.5,126.22a1,1,0,1,1-1.24-.71A1,1,0,0,1,435.5,126.22Z" style="fill:#fff;opacity:0.4"></path><path d="M419.58,183a1,1,0,0,1-.71,1.24,1,1,0,0,1-1.24-.71,1,1,0,1,1,1.95-.53Z" style="fill:#fff;opacity:0.4"></path><path d="M417.54,120.13a1.54,1.54,0,1,1-1.89-1.08A1.53,1.53,0,0,1,417.54,120.13Z" style="fill:#fff;opacity:0.4"></path><path d="M389,126.31a.67.67,0,0,1-.47.81.65.65,0,0,1-.8-.46.66.66,0,0,1,.46-.81A.67.67,0,0,1,389,126.31Z" style="fill:#fff;opacity:0.4"></path><path d="M443.51,144.51a.66.66,0,1,1-1.27.34.65.65,0,0,1,.46-.8A.66.66,0,0,1,443.51,144.51Z" style="fill:#fff;opacity:0.4"></path><path d="M413.27,163.61a.66.66,0,0,1-.46.81.65.65,0,0,1-.8-.46.66.66,0,0,1,.46-.81A.65.65,0,0,1,413.27,163.61Z" style="fill:#fff;opacity:0.4"></path><path d="M397.77,139.22a.65.65,0,1,1-.8-.46A.64.64,0,0,1,397.77,139.22Z" style="fill:#fff;opacity:0.4"></path></g><path d="M428.08,46.58C409.87,57.34,384.8,64.16,363.64,64.1c2.8-.13,5.59-.39,8.37-.75,19.39-2.58,38.57-8,56.07-16.77Z" style="fill:#fff"></path><path d="M370.12,63.71s18.35,67.48,22.12,81.36c7,25.64,30.66,59.55,43.27,56.13,15.24-4.15,14.22-40.87,13.64-47.9S421.09,50.09,421.09,50.09,419.3,51,413,53.6c0,0,23.82,87.61,27.12,99.76,2.09,7.68,2.7,37.6-5.73,39.89S410.44,150,408,140.8s-21.57-79.32-21.57-79.32C382.17,62.62,370.12,63.71,370.12,63.71Z" style="fill:#fff;opacity:0.30000000000000004"></path><path d="M599.34,255s-6.59-3.12-38.71-25.25c-22.21-15.3-86.09-38.37-148.89,4.08-24.06,16.27-23.15,40.25,4.85,27.79,19.71-8.77,32.63-16.55,39.86-17.61,0,0-15.25,29.31-6.52,46.35,3.9,7.61,15,28.14,26,42.89a74.46,74.46,0,0,0,8.46-4.14s11.7,21.09,38.67,18.53l39.61,4.83Z" style="fill:#ad6359"></path><path d="M537.1,218.54c-14,1.62-43.75,5.54-66.94,17.2-25.75,12.95-71.87,44.83-62.11,63.75,7.15,13.86,25.83,3.24,25.83,3.24s-16.29,17.2-7.08,28.31c8.38,10.13,22.34,1,22.34,1s-8.09,12.13,1.87,20.33c12,9.86,26.95-17.18,47.71-17.67C503.39,334.63,537.1,218.54,537.1,218.54Z" style="fill:#ad6359"></path><path d="M488.39,260.67c-13,3.68-40.25,19.6-54.49,41.46-.32.49-.12,1,.27.61a282.61,282.61,0,0,1,54.34-41.83C488.65,260.83,488.53,260.62,488.39,260.67Z" style="fill:#263238"></path><path d="M500.7,287c-10.85,4.33-38.24,22-51.91,44.64-.31.51-.07,1,.3.6,20.84-22.56,41.85-38.53,51.75-45C501,287.19,500.84,287,500.7,287Z" style="fill:#263238"></path><path d="M750,260.34V367.11c-8.85,5.51-17.32,9.2-25,10.18l-.86.1-.88.1c-28.7,3-94.4-5.28-130.25-10.34-14.75-2.08-24.45-3.62-24.45-3.62l35.31-113.14s111.56,20.45,122.93,21.73c.36,0,.62.06.77.06h.06C729.09,272.12,737.53,267.19,750,260.34Z" style="fill:#FF0000"></path><path d="M750,260.34V367.11c-8.85,5.51-17.32,9.2-25,10.18l-.86.1-.88.1c-39.85,4.44-131.84-5-131.84-5l1.59-5.35,33.42-112.27s90.08,16.18,100.37,17.24a7.64,7.64,0,0,0,.77.06h.06C729.09,272.12,737.53,267.19,750,260.34Z" style="fill:#263238"></path><path d="M622.32,363.27c-.19,2.37-3,4.07-6.33,3.8s-5.82-2.41-5.62-4.78,3-4.07,6.32-3.8S622.51,360.9,622.32,363.27Z" style="fill:#37474f"></path><path d="M642.93,365.27c-.2,2.37-3,4.07-6.33,3.8s-5.82-2.41-5.63-4.78,3-4.07,6.33-3.8S643.12,362.9,642.93,365.27Z" style="fill:#37474f"></path></g><g id="freepik--character-1--inject-59"><path d="M298.29,399.8,263,376.59l28.77-95.79.1,0a173.47,173.47,0,0,1,7.09-16.56c5.59-11.38,35.17-29.85,46.44-60.16,13.15-35.36,29-96.15,29-96.15s-3.91-5-30.91-13.13-33-6.1-33-6.1S290.18,148.19,281.66,185c-7.33,31.49,7.17,63.22,5.55,75.79-1.21,9.26-2.9,16.76-3.12,17.66,0,0,0,0,0,0L255.3,374.28l-42.25-.08ZM284.77,185.89c2.83-12.2,7.44-28.32,12.14-43.84,1.81-6.05,2.88-9.41,2.88-9.41h0c7.05-22.78,13.49-42,13.49-42s9.94,6.12,28,11.55C359.49,107.65,371,108,371,108s-5.22,19.62-11.91,42.51c0,0,0,.13-.11.4-.76,2.85-5.57,20.54-13.52,43.32L343.77,199c-.51,1.45-1,2.83-1.51,4.16-8,21.84-27.75,39.6-38.84,44.88-.23.11-.44.22-.66.3-.41.19-.82.35-1.2.5l-.24.09a7.46,7.46,0,0,1-4.35.59,4.64,4.64,0,0,1-1.69-1,12.15,12.15,0,0,1-1.65-1.82C286.83,237.72,278.54,210,284.77,185.89Z" style="fill:#ebebeb;opacity:0.8"></path><path d="M301.32,249a7.46,7.46,0,0,1-4.35.59,4.64,4.64,0,0,1-1.69-1,12.15,12.15,0,0,1-1.65-1.82v0l7-23.26,7.68,2.31Z" style="fill:#ebebeb"></path><path d="M345.45,194.24,343.77,199c-.51,1.45-1,2.83-1.51,4.16-8,21.84-27.75,39.6-38.84,44.88-.23.11-.44.22-.66.3-.41.19-.82.35-1.2.5l-.24.09a7.46,7.46,0,0,1-4.35.59,4.64,4.64,0,0,1-1.69-1,12.15,12.15,0,0,1-1.65-1.82c-6.8-9-15.09-36.73-8.86-60.79,2.83-12.2,7.44-28.32,12.14-43.84,1.81-6.05,2.88-9.41,2.88-9.41h0c7.05-22.78,13.49-42,13.49-42s9.94,6.12,28,11.55C359.49,107.65,371,108,371,108s-5.22,19.62-11.91,42.51c0,0,0,.13-.11.4C358.21,153.77,353.4,171.46,345.45,194.24Z" style="fill:#dbdbdb;opacity:0.7000000000000001"></path><g style="opacity:0.6000000000000001"><path d="M345.45,194.24,343.77,199l-1.51,4.16c-8,21.84-27.75,39.6-38.84,44.88-.23.11-.44.22-.66.3-.41.19-.82.35-1.2.5l-.24.09a7.46,7.46,0,0,1-4.35.59,4.64,4.64,0,0,1-1.69-1,12.15,12.15,0,0,1-1.65-1.82c-6.8-9-15.09-36.73-8.86-60.79,5-19.23,9.4-34.63,12.14-43.84,1.81-6.05,2.88-9.41,2.88-9.41h0c.38,0,1.88-8,25.47-.87,24.36,7.32,33.81,18.75,33.81,18.75s0,.13-.11.4C358.21,153.77,353.4,171.46,345.45,194.24Z" style="fill:#FF0000"></path><path d="M359.08,150.52c-1-.05-1.78,12.09-19.69,6.71-17.7-5.32-38.66-24-39.59-24.58h0c.38,0,1.88-8,25.47-.87C349.63,139.09,359.08,150.52,359.08,150.52Z" style="fill:#fff;opacity:0.4"></path><path d="M307,148.11a1.53,1.53,0,1,1-1-1.91A1.52,1.52,0,0,1,307,148.11Z" style="fill:#fff;opacity:0.4"></path><path d="M292,211.78a1.54,1.54,0,1,1-1-1.91A1.53,1.53,0,0,1,292,211.78Z" style="fill:#fff;opacity:0.4"></path><path d="M328.76,191.37a1,1,0,1,1-.68-1.26A1,1,0,0,1,328.76,191.37Z" style="fill:#fff;opacity:0.4"></path><path d="M319.08,230.71a1,1,0,1,1-.68-1.26A1,1,0,0,1,319.08,230.71Z" style="fill:#fff;opacity:0.4"></path><path d="M314.21,163.22a1,1,0,0,1-1.25.68,1,1,0,1,1,1.25-.68Z" style="fill:#fff;opacity:0.4"></path><path d="M296.8,217.63a1,1,0,1,1-.68-1.26A1,1,0,0,1,296.8,217.63Z" style="fill:#fff;opacity:0.4"></path><path d="M330.14,201.1a1.54,1.54,0,1,1-1-1.92A1.55,1.55,0,0,1,330.14,201.1Z" style="fill:#fff;opacity:0.4"></path><path d="M300.81,153.38a.65.65,0,1,1-1.25-.38.67.67,0,0,1,.82-.44A.66.66,0,0,1,300.81,153.38Z" style="fill:#fff;opacity:0.4"></path><path d="M348.77,165.75a.65.65,0,1,1-1.25-.38.65.65,0,1,1,1.25.38Z" style="fill:#fff;opacity:0.4"></path><path d="M301.68,197.88a.65.65,0,1,1-.44-.82A.66.66,0,0,1,301.68,197.88Z" style="fill:#fff;opacity:0.4"></path><path d="M301.44,169a.65.65,0,0,1-.82.44.65.65,0,1,1,.38-1.25A.66.66,0,0,1,301.44,169Z" style="fill:#fff;opacity:0.4"></path></g><path d="M374.32,108.27c-21.15-.51-46-8-64-19.23,2.45,1.38,5,2.63,7.51,3.79a176.7,176.7,0,0,0,56.45,15.44Z" style="fill:#fff"></path><path d="M316.07,92.14s-20.13,67-24.28,80.75c-7.65,25.44-5.49,66.75,7,70.51C313.94,248,332.5,216.24,335.73,210s30.8-102.42,30.8-102.42-2-.2-8.73-1.31c0,0-26.15,87-29.77,99-2.29,7.63-17.6,33.34-26,30.82s2.58-49.38,5.32-58.49,23.67-78.72,23.67-78.72C326.87,97.59,316.07,92.14,316.07,92.14Z" style="fill:#fff;opacity:0.30000000000000004"></path><path d="M183.67,404.29C157.31,417.28,13,448.57,0,451.1v-139c1.75-.2,136.49-13,141.75-14.62C156.41,292.87,196.57,397.93,183.67,404.29Z" style="fill:#eb9481"></path><path d="M131.13,304.21s36.69-24.32,61.43-39.1c13.8-8.24,38.73-20.26,51.64-21.68,19.31-2.12,101.43,1.34,101,21.27-.37,18-70.55,6.1-70.55,6.1s71.88,5.78,67.44,27.42-81.94-2.38-81.94-2.38,73.72,7.59,65.61,29.18c-6.13,16.32-77.54-1.49-77.54-1.49s63.31,7,57.73,24c-6.16,18.84-73.11,6.54-73.11,6.54-21.48,41-48.46,51.67-68.56,57C159.44,412.39,131.13,304.21,131.13,304.21Z" style="fill:#eb9481"></path><path d="M249.94,267.21c8.47.38,17,.7,25.45,1.82s16.78,2.55,25,4.45c20.26,4.66,32.22,10.75,31.44,10.46-18.44-7-48.46-11.49-56.87-12.61s-16.72-2.67-25.11-3.8C249.68,267.5,249.74,267.2,249.94,267.21Z" style="fill:#263238"></path><path d="M245.33,297.49c10.79.94,21.54,1.48,32.29,2.91s20.73,3.69,31.3,5.84c.82.16.46.55-.36.41-10.65-1.72-20.63-2.49-31.31-4.09s-21.28-3.61-32-4.82C245.12,297.72,245.17,297.47,245.33,297.49Z" style="fill:#263238"></path><path d="M236.7,322.76c16.56.6,33,4.25,49,8.23.8.19.29.64-.54.48-16.25-3-29-5.54-48.51-8.13C236.37,323.3,236.35,322.75,236.7,322.76Z" style="fill:#263238"></path><path d="M111.41,297.81a6.92,6.92,0,0,1-.89,3.39l-11.4,1.18a7,7,0,0,1-.53-.69,7.21,7.21,0,0,1-1-2.52,6.72,6.72,0,0,1,0-2.73,6.61,6.61,0,0,1,.4-1.31,7,7,0,0,1,.64-1.21,7.44,7.44,0,0,1,.87-1.06,6,6,0,0,1,1.07-.87,7,7,0,0,1,1.2-.65,7.89,7.89,0,0,1,1.31-.4,7,7,0,0,1,2.74,0,7.35,7.35,0,0,1,1.31.4,7.05,7.05,0,0,1,1.21.65,6.29,6.29,0,0,1,1.06.87,6.82,6.82,0,0,1,.87,1.06,7.82,7.82,0,0,1,.65,1.21,7.32,7.32,0,0,1,.39,1.31A6.31,6.31,0,0,1,111.41,297.81Z" style="fill:#FF0000"></path><path d="M135.57,431.71a7,7,0,0,1,6-7.84h0a7,7,0,0,1,3.44.41h0a6.91,6.91,0,0,1,.37-4.51h0a7,7,0,0,1,5.32-4.12h0a7,7,0,0,1-3-6.4h0a7,7,0,0,1,4.55-5.92h0a7,7,0,0,1-4.31-6.19h0a7,7,0,0,1,3.94-6.57h0a7,7,0,0,1-5-5.9h0a7,7,0,0,1,3.52-6.91h0a7,7,0,0,1-5.32-5.66h0a7,7,0,0,1,3.2-7.1h0a7,7,0,0,1-5.56-5.46h0a7,7,0,0,1,2.9-7.2h0a7,7,0,0,1-5.78-5.18h0a7,7,0,0,1,2.51-7.31h0a7,7,0,0,1-6-4.81h0a7,7,0,0,1,2-7.39h0a7,7,0,0,1-6.32-4.28h0a7,7,0,0,1,1.27-7.44h0a7,7,0,0,1-6.64-3.44h0a7,7,0,0,1,.12-7.26h0a7,7,0,0,1-6.83-2h0a7,7,0,0,1-1.85-5.9h0a7,7,0,0,1-5.3,1.08h0a7,7,0,0,1-5.5-8.23h0a7,7,0,0,1,8.22-5.5h0a7,7,0,0,1,5.56,7.94h0a7,7,0,0,1,9,.95h0a7,7,0,0,1,.87,8.56h0a7,7,0,0,1,7.8,3.25h0a7,7,0,0,1-.87,8.24h0a7,7,0,0,1,7.05,4.25h0a7,7,0,0,1-1.79,8h0a7,7,0,0,1,6.52,4.83h0a7,7,0,0,1-2.39,7.72h0a7,7,0,0,1,6.15,5.22h0a7,7,0,0,1-2.82,7.54h0a7,7,0,0,1,5.85,5.5h0a7,7,0,0,1-3.15,7.37h0a7,7,0,0,1,5.62,5.72h0a7,7,0,0,1-3.47,7.26h0a7,7,0,0,1,5.37,6h0a7,7,0,0,1-3.9,7.11h0a7,7,0,0,1,5,6.43h0a7,7,0,0,1-4.58,6.85h0a7,7,0,0,1,4.29,7.12h0a7,7,0,0,1-5.87,6.26h0a7,7,0,0,1,2.42,8.55h0a7,7,0,0,1-8.94,3.73h0a7.05,7.05,0,0,1,.15.8h0a7,7,0,0,1-6,7.85h0a7,7,0,0,1-.91.06h0A7,7,0,0,1,135.57,431.71Z" style="fill:#FF0000"></path><path d="M137.52,426.35a7,7,0,0,1-2.05,4.94,6.36,6.36,0,0,1-1.07.87,6.7,6.7,0,0,1-1.21.65,7.35,7.35,0,0,1-1.31.4,7.23,7.23,0,0,1-2.73,0,7.35,7.35,0,0,1-1.31-.4,7.05,7.05,0,0,1-1.21-.65,6.29,6.29,0,0,1-1.06-.87,7,7,0,0,1-1.92-6.31,7.35,7.35,0,0,1,.4-1.31,6.7,6.7,0,0,1,.65-1.21c0-.07.1-.15.16-.22,2.92-.74,5.79-1.49,8.61-2.23a6.45,6.45,0,0,1,.93.51,7,7,0,0,1,1.07.88A7,7,0,0,1,137.52,426.35Z" style="fill:#FF0000"></path><g style="opacity:0.7000000000000001"><path d="M111.41,297.81a6.92,6.92,0,0,1-.89,3.39l-11.4,1.18a7,7,0,0,1-.53-.69,7.21,7.21,0,0,1-1-2.52,6.72,6.72,0,0,1,0-2.73,6.61,6.61,0,0,1,.4-1.31,7,7,0,0,1,.64-1.21,7.44,7.44,0,0,1,.87-1.06,6,6,0,0,1,1.07-.87,7,7,0,0,1,1.2-.65,7.89,7.89,0,0,1,1.31-.4,7,7,0,0,1,2.74,0,7.35,7.35,0,0,1,1.31.4,7.05,7.05,0,0,1,1.21.65,6.29,6.29,0,0,1,1.06.87,6.82,6.82,0,0,1,.87,1.06,7.82,7.82,0,0,1,.65,1.21,7.32,7.32,0,0,1,.39,1.31A6.31,6.31,0,0,1,111.41,297.81Z" style="fill:#fff"></path><path d="M135.57,431.71a7,7,0,0,1,6-7.84h0a7,7,0,0,1,3.44.41h0a6.91,6.91,0,0,1,.37-4.51h0a7,7,0,0,1,5.32-4.12h0a7,7,0,0,1-3-6.4h0a7,7,0,0,1,4.55-5.92h0a7,7,0,0,1-4.31-6.19h0a7,7,0,0,1,3.94-6.57h0a7,7,0,0,1-5-5.9h0a7,7,0,0,1,3.52-6.91h0a7,7,0,0,1-5.32-5.66h0a7,7,0,0,1,3.2-7.1h0a7,7,0,0,1-5.56-5.46h0a7,7,0,0,1,2.9-7.2h0a7,7,0,0,1-5.78-5.18h0a7,7,0,0,1,2.51-7.31h0a7,7,0,0,1-6-4.81h0a7,7,0,0,1,2-7.39h0a7,7,0,0,1-6.32-4.28h0a7,7,0,0,1,1.27-7.44h0a7,7,0,0,1-6.64-3.44h0a7,7,0,0,1,.12-7.26h0a7,7,0,0,1-6.83-2h0a7,7,0,0,1-1.85-5.9h0a7,7,0,0,1-5.3,1.08h0a7,7,0,0,1-5.5-8.23h0a7,7,0,0,1,8.22-5.5h0a7,7,0,0,1,5.56,7.94h0a7,7,0,0,1,9,.95h0a7,7,0,0,1,.87,8.56h0a7,7,0,0,1,7.8,3.25h0a7,7,0,0,1-.87,8.24h0a7,7,0,0,1,7.05,4.25h0a7,7,0,0,1-1.79,8h0a7,7,0,0,1,6.52,4.83h0a7,7,0,0,1-2.39,7.72h0a7,7,0,0,1,6.15,5.22h0a7,7,0,0,1-2.82,7.54h0a7,7,0,0,1,5.85,5.5h0a7,7,0,0,1-3.15,7.37h0a7,7,0,0,1,5.62,5.72h0a7,7,0,0,1-3.47,7.26h0a7,7,0,0,1,5.37,6h0a7,7,0,0,1-3.9,7.11h0a7,7,0,0,1,5,6.43h0a7,7,0,0,1-4.58,6.85h0a7,7,0,0,1,4.29,7.12h0a7,7,0,0,1-5.87,6.26h0a7,7,0,0,1,2.42,8.55h0a7,7,0,0,1-8.94,3.73h0a7.05,7.05,0,0,1,.15.8h0a7,7,0,0,1-6,7.85h0a7,7,0,0,1-.91.06h0A7,7,0,0,1,135.57,431.71Z" style="fill:#fff"></path><path d="M137.52,426.35a7,7,0,0,1-2.05,4.94,6.36,6.36,0,0,1-1.07.87,6.7,6.7,0,0,1-1.21.65,7.35,7.35,0,0,1-1.31.4,7.23,7.23,0,0,1-2.73,0,7.35,7.35,0,0,1-1.31-.4,7.05,7.05,0,0,1-1.21-.65,6.29,6.29,0,0,1-1.06-.87,7,7,0,0,1-1.92-6.31,7.35,7.35,0,0,1,.4-1.31,6.7,6.7,0,0,1,.65-1.21c0-.07.1-.15.16-.22,2.92-.74,5.79-1.49,8.61-2.23a6.45,6.45,0,0,1,.93.51,7,7,0,0,1,1.07.88A7,7,0,0,1,137.52,426.35Z" style="fill:#fff"></path></g><path d="M105.08,294.88a2.61,2.61,0,1,1-2.61-2.61A2.61,2.61,0,0,1,105.08,294.88Z" style="fill:#fff"></path><path d="M115.4,288.2a2.61,2.61,0,1,1-2.61-2.61A2.61,2.61,0,0,1,115.4,288.2Z" style="fill:#fff"></path><path d="M127,294.88a2.61,2.61,0,1,1-2.61-2.61A2.61,2.61,0,0,1,127,294.88Z" style="fill:#fff"></path><circle cx="132.22" cy="305.52" r="2.61" style="fill:#fff"></circle><path d="M140.6,317.21A2.61,2.61,0,1,1,138,314.6,2.61,2.61,0,0,1,140.6,317.21Z" style="fill:#fff"></path><circle cx="142.81" cy="329.85" r="2.61" style="fill:#fff"></circle><circle cx="146.8" cy="342.32" r="2.61" style="fill:#fff"></circle><path d="M151.18,355.51a2.61,2.61,0,1,1-2.61-2.61A2.61,2.61,0,0,1,151.18,355.51Z" style="fill:#fff"></path><path d="M152.84,368.48a2.61,2.61,0,1,1-2.6-2.61A2.6,2.6,0,0,1,152.84,368.48Z" style="fill:#fff"></path><circle cx="151.95" cy="381.01" r="2.61" style="fill:#fff"></circle><path d="M156.11,393.59a2.61,2.61,0,1,1-2.6-2.61A2.6,2.6,0,0,1,156.11,393.59Z" style="fill:#fff"></path><path d="M156.11,407.08a2.61,2.61,0,1,1-2.6-2.61A2.6,2.6,0,0,1,156.11,407.08Z" style="fill:#fff"></path><circle cx="151.95" cy="419.42" r="2.61" style="fill:#fff"></circle><circle cx="142.81" cy="427.72" r="2.61" style="fill:#fff"></circle></g></svg>